<svg width="44" height="45" viewBox="0 0 44 45" fill="none" xmlns="http://www.w3.org/2000/svg">
<path d="M20.3421 12.2395C21.5374 11.2885 22.6207 10.4735 24.1021 10.0417C26.3987 9.37212 28.8673 9.2417 31.1966 9.87466C36.4517 11.3027 40.7379 16.193 41.5501 21.5533C42.4057 27.2004 39.913 32.8742 36.1309 36.9812C32.2902 41.1521 26.3667 43.0568 20.8161 43.2407C15.9303 43.4027 11.387 41.7494 7.68301 38.5919C3.85833 35.3315 1.33759 30.2238 1.66052 25.1679C2.00888 19.7139 4.75252 13.5552 10.0317 11.2483C12.3744 10.2246 14.6282 10.1832 17.0184 11.0975C20.1809 12.3072 21.5499 15.6715 23.251 18.3482" stroke="black" stroke-width="3" stroke-linecap="round"/>
<path d="M19.3387 12.6534C21.1162 14.2394 21.9456 16.2827 22.7879 18.4587C23.2302 19.6013 23.4255 20.856 23.7352 22.0414C24.1462 23.6145 24.7603 25.1096 25.1319 26.699C25.8541 29.7886 26.0063 32.7763 26.0063 35.9352C26.0063 37.8131 25.5691 39.6399 25.5691 41.5098" stroke="black" stroke-width="3" stroke-linecap="round"/>
<path d="M2.8073 20.2086C6.83975 29.4649 18.6856 31.9522 27.747 29.4744C31.7433 28.3817 36.0767 26.7814 39.1252 23.8297C39.7299 23.2442 41.3085 21.8153 41.3085 20.8476" stroke="black" stroke-width="3" stroke-linecap="round"/>
<path d="M19.7564 10.5674C19.0456 7.24997 21.404 4.17251 23.9181 2.28697" stroke="black" stroke-width="3" stroke-linecap="round"/>
<path d="M19.3703 9.75219C18.5389 8.34704 17.9283 6.79412 16.7746 5.60246C15.6537 4.4446 14.2291 4.03245 12.7202 3.61697" stroke="black" stroke-width="3" stroke-linecap="round"/>
</svg>
